<?xml version="1.0" encoding="UTF-8"?>
<!DOCTYPE svg PUBLIC "-//W3C//DTD SVG 1.1//EN" "http://www.w3.org/Graphics/SVG/1.1/DTD/svg11.dtd">
<!-- Creator: CorelDRAW 2020 (64 Bit) -->
<svg xmlns="http://www.w3.org/2000/svg" xml:space="preserve" width="455.102mm" height="330.037mm" version="1.1" style="shape-rendering:geometricPrecision; text-rendering:geometricPrecision; image-rendering:optimizeQuality; fill-rule:evenodd; clip-rule:evenodd"
viewBox="0 0 91693.34 66495.51"
 xmlns:xlink="http://www.w3.org/1999/xlink"
 xmlns:xodm="http://www.corel.com/coreldraw/odm/2003">
 <defs>
  <style type="text/css">
   <![CDATA[
    .fil3 {fill:#5BCBF5;fill-rule:nonzero}
    .fil6 {fill:#5C546A;fill-rule:nonzero}
    .fil0 {fill:#8360A0;fill-rule:nonzero}
    .fil7 {fill:#8360A0;fill-rule:nonzero}
    .fil4 {fill:#BCA5DE;fill-rule:nonzero}
    .fil5 {fill:#C7F4F9;fill-rule:nonzero}
    .fil2 {fill:#D7D3FC;fill-rule:nonzero}
    .fil8 {fill:#E87E04;fill-rule:nonzero}
    .fil1 {fill:#F3F2FF;fill-rule:nonzero}
    .fil9 {fill:#FF9600;fill-rule:nonzero}
    .fil10 {fill:#FFCB39;fill-rule:nonzero}
   ]]>
  </style>
 </defs>
 <g id="Camada_x0020_1">
  <metadata id="CorelCorpID_0Corel-Layer"/>
  <g id="_2613752192560">
   <path class="fil0" d="M25868.79 65942.41c1075.27,-385.97 2098.89,-923.74 3029.31,-1586.81 4190.2,-2860.35 6698.12,-7606.31 6698.12,-12680.29 0,-8477.89 -6875.26,-15353.15 -15353.15,-15353.15 -286.78,0 -577.32,9.37 -862.23,24.36 -2785.83,173.82 -5481.25,1085.85 -7802.93,2633.01 -938.99,658.01 -1809.3,1422.68 -2585.72,2267.56 1666.59,-10676.5 10865.45,-18552.45 21673.78,-18552.45 12112.5,0 21935.32,9822.84 21935.32,21935.32 0,2313.78 -366.89,4616.85 -1084.58,6815.46 -1524.77,4530.94 -4513.23,8443.21 -8486.35,11103.44 -3599.6,2565.23 -7920.44,3946.65 -12342.53,3946.65 -1620.31,0 -3243.22,-186.95 -4819.39,-553.08l0.34 -0.02z"/>
   <path class="fil1" d="M91690.66 3736.77c-31.33,-535.39 -354.48,-1010.68 -840.65,-1237.1 -4080.71,-1639.19 -8456.53,-2485.72 -12857.63,-2485.72 -7041.75,0 -13927.67,2160.54 -19705.96,6182.6 -6532.97,4439.63 -22790.18,17921.22 -37841.98,31323.51 -1237.16,1109.68 -1945.96,2695.18 -1945.96,4357.87 0,1171.8 352.25,2317.89 1010.32,3286.76l6423.59 9421.25c1091.37,1584.05 2894.1,2530.78 4818.29,2530.78 915.3,0 1819.15,-215.78 2635.85,-627.34 17970.16,-9104.04 36479.6,-19334.19 42982.47,-23791.04 9569.84,-6397.96 15322.85,-17162.75 15322.85,-28677.19 0,-92.66 0,-193.74 0,-286.38l-1.17 2.01zm-15321.42 28961.64z"/>
   <path class="fil2" d="M22728.38 49875.52l-3172.14 -4758.2c-657.95,-969.09 -1010.19,-2115.19 -1010.19,-3286.99 0,-1662.68 708.8,-3248.18 1946.35,-4357.83 15003.85,-13354.74 31261.05,-26836.34 37795.66,-31277.33 5776.66,-4020.69 12662.58,-6181.23 19704.33,-6181.23 4401.1,0 8776.92,846.53 12857.94,2484.82 237.34,113.8 440.43,289.44 586.5,508.39l0.08 0.02 -68708.51 46868.35zm68121.67 -47375.87z"/>
   <path class="fil3" d="M71055.9 27511.95c-1452.3,991.22 -3174.26,1522.43 -4933.61,1522.43 -4834.48,0 -8755.1,-3920.62 -8755.1,-8755.1 0,-4834.48 3920.62,-8755.1 8755.1,-8755.1 2894.51,0 5603.01,1431.2 7233.03,3822.28 990.85,1452.58 1522.07,3173.47 1522.07,4932.83 0,2893.42 -1431.2,5603.01 -3821.21,7233.03l-0.28 -0.36zm2299.8 -12165.15z"/>
   <path class="fil4" d="M90850.05 2499.65c-4062.01,-1646.99 -8420.97,-2499.65 -12809.02,-2499.65 -1451.59,0 -2911.51,95.66 -4350.61,278.67l13814.66 20254.1c2744.99,-5013.38 4188.26,-10649.22 4188.26,-16368.24 0,-141.42 -4.15,-291.16 -4.15,-428.4 -29.86,-534.74 -353.01,-1010.03 -839.18,-1236.46l0.04 -0.02zm840.61 1237.12z"/>
   <path class="fil0" d="M91452.75 3007.17c-150.3,-221.04 -359.1,-396.87 -602.62,-507.51 -4062.1,-1647.01 -8421.05,-2499.67 -12809.1,-2499.67 -1451.59,0 -2911.51,95.66 -4350.61,278.67l6899.4 10119.11 10862.93 -7390.61z"/>
   <path class="fil5" d="M71055.9 27511.95c2390.28,-1629.66 3821.49,-4339.25 3821.49,-7232.67 0,-1759.35 -531.22,-3480.24 -1522.07,-4932.83l-14464.95 9865.35c1630.02,2390.61 4339.61,3821.83 7233.03,3821.83 1759.35,0 3480.24,-531.22 4932.83,-1522.07l-0.32 0.38zm-12165.15 -2299.8z"/>
   <line class="fil6" x1="84505.76" y1="28987" x2="22755.08" y2= "39979.87" />
   <path class="fil7" d="M72181.26 16207.08c-1357.18,-1994.06 -3616.95,-3188.52 -6029.92,-3188.52 -4028.73,0 -7295.91,3267.16 -7295.91,7295.91 0,4028.73 3267.18,7295.91 7295.91,7295.91 1466.14,0 2900.19,-442.69 4110.69,-1268.39 1989.18,-1362.18 3179.09,-3620.61 3179.09,-6031.69 0,-1462.17 -439.18,-2894 -1259.54,-4103.56l-0.32 0.34zm-14495.92 9829.83c-1140.31,-1687.71 -1751.35,-3681.68 -1751.35,-5719.3 0,-5640.24 4574.05,-10214.29 10214.29,-10214.29 5640.24,0 10214.29,4574.05 10214.29,10214.29 0,3351.98 -1647.31,6493.2 -4403.2,8399.89 -1705.4,1176.11 -3733.68,1808.09 -5806.94,1808.09 -3390.89,0 -6564.48,-1683.58 -8466.62,-4488.73l-0.46 0.04z"/>
   <path class="fil8" d="M18065.34 61057.31c-6344.29,4314.11 -18065.34,4329.96 -18065.34,4329.96 0,0 3695.54,-10515.64 10626.66,-15242.12 1095.32,-746.5 2393.23,-1147.16 3719.36,-1147.16 3646.22,0 6603.21,2956.96 6603.21,6603.21 0,2183.06 -1080.25,4226.66 -2883.61,5456.05l-0.28 0.06z"/>
   <path class="fil9" d="M18636.31 57964.47c-4203.09,2870.79 -11990.69,2870.79 -11990.69,2870.79 0,0 2458.42,-6899.4 7058.03,-10071.54 728.85,-497.29 1591.92,-764.09 2474.28,-764.09 2423.15,0 4388.23,1965.08 4388.23,4388.23 0,1449.7 -717.35,2807.27 -1914.19,3624.26l-15.65 -47.65z"/>
   <path class="fil10" d="M18588.74 56108.77c-2553.56,1744.69 -7311.79,1744.69 -7311.79,1744.69 853.52,-2403.82 2341.81,-4535.17 4298.89,-6169.85 443.03,-303.02 968.57,-465.7 1506.16,-465.7 1474.54,0 2670.34,1195.8 2670.34,2670.34 0,881.85 -435.56,1706.99 -1163.52,2204.48l-0.08 16.04z"/>
  </g>
 </g>
</svg>
